<?xml version="1.0" encoding="utf-8"?>
<!-- Generator: Adobe Illustrator 16.0.0, SVG Export Plug-In . SVG Version: 6.00 Build 0)  -->
<!DOCTYPE svg PUBLIC "-//W3C//DTD SVG 1.1//EN" "http://www.w3.org/Graphics/SVG/1.1/DTD/svg11.dtd">
<svg version="1.1" id="Layer_1" xmlns="http://www.w3.org/2000/svg" xmlns:xlink="http://www.w3.org/1999/xlink" x="0px" y="0px"
	 width="24px" height="24px" viewBox="0 0 24 24" enable-background="new 0 0 24 24" xml:space="preserve">
<g>
	<g>
		<path fill="#FFFFFF" d="M12.02,13.72c0.945,0,1.714-0.768,1.714-1.713V1.727c0-0.947-0.77-1.714-1.714-1.714
			c-0.946,0-1.713,0.767-1.713,1.714v10.28C10.307,12.952,11.073,13.72,12.02,13.72z M13.311,23.451l10.147-10.039
			c0.724-0.713,0.724-1.871,0-2.585c-0.726-0.713-1.897-0.713-2.621,0L12,19.569l-8.835-8.742c-0.726-0.713-1.899-0.713-2.622,0
			c-0.725,0.714-0.725,1.872,0,2.585l10.146,10.039C11.414,24.165,12.587,24.165,13.311,23.451z"/>
	</g>
</g>
</svg>
