<?xml version="1.0" encoding="utf-8"?>
<!-- Generator: Adobe Illustrator 16.0.0, SVG Export Plug-In . SVG Version: 6.00 Build 0)  -->
<!DOCTYPE svg PUBLIC "-//W3C//DTD SVG 1.1//EN" "http://www.w3.org/Graphics/SVG/1.1/DTD/svg11.dtd">
<svg version="1.1" id="Layer_1" xmlns="http://www.w3.org/2000/svg" xmlns:xlink="http://www.w3.org/1999/xlink" x="0px" y="0px"
	 width="24px" height="24px" viewBox="0 0 24 24" enable-background="new 0 0 24 24" xml:space="preserve">
<g>
	<g>
		<path fill="#FFFFFF" d="M11.992,13.693h10.281c0.947,0,1.713-0.768,1.713-1.713c0-0.945-0.766-1.714-1.713-1.714H11.992
			c-0.945,0-1.713,0.769-1.713,1.714C10.279,12.927,11.047,13.693,11.992,13.693z M0.548,13.311l10.039,10.146
			c0.713,0.725,1.871,0.725,2.585,0c0.713-0.723,0.713-1.896,0-2.622L4.43,12l8.742-8.837c0.713-0.724,0.713-1.896,0-2.621
			c-0.714-0.724-1.872-0.724-2.585,0L0.548,10.689C-0.166,11.413-0.166,12.586,0.548,13.311z"/>
	</g>
</g>
</svg>
