<svg xmlns="http://www.w3.org/2000/svg" xmlns:xlink="http://www.w3.org/1999/xlink" version="1.1" id="Layer_1" x="0px" y="0px" width="150px" height="150px" viewBox="0 0 150 150" enable-background="new 0 0 150 150" xml:space="preserve">
  <g>
    <g>
      <path fill="#FFFFFF" d="M125.292 73.568c-3.813-0.953-8.329-1.719-13.209-2.247 5.922-6.223 9.584-16.258 9.584-27.343 0-16.461-7.922-29.504-19.708-32.491C88.186 8.04 65.423 6.929 48.346 11.413c-11.253 0.334-20.012 14.495-20.012 32.524 0 18.246 8.969 32.54 20.416 32.54s20.417-14.294 20.417-32.54c0-12.446-4.176-23.049-10.462-28.535 14.533-2.004 31.353-0.802 41.847 1.825 8.994 2.282 15.281 13.266 15.281 26.71 0 12.217-5.148 23.106-12.558 26.722 -10.666-0.443-22.152 0.32-31.799 2.884 -11.154 0.497-19.81 14.596-19.81 32.517 0 18.025 8.755 32.184 20.004 32.524 7.906 2.076 17.03 2.956 25.92 2.96 10.311 0 20.299-1.179 27.691-3.031C137.08 135.523 145 122.48 145 106.06 145 89.6 137.08 76.556 125.292 73.568zM63.334 43.938c0 14.433-6.68 26.623-14.584 26.623S34.167 58.37 34.167 43.938s6.679-26.623 14.583-26.623S63.334 29.505 63.334 43.938zM72.084 132.684c-7.904 0-14.584-12.191-14.584-26.624s6.68-26.623 14.584-26.623c7.905 0 14.583 12.19 14.583 26.623S79.989 132.684 72.084 132.684zM123.876 132.772c-10.485 2.622-27.303 3.823-41.836 1.821 6.286-5.486 10.46-16.088 10.46-28.534 0-12.473-4.191-23.095-10.5-28.57 14.543-2.012 31.384-0.809 41.885 1.819 8.995 2.283 15.282 13.266 15.282 26.71C139.167 119.504 132.88 130.487 123.876 132.772zM71.928 123.808c-2.003 0-5.678-6.739-5.678-17.748 0-11.01 3.675-17.75 5.678-17.75 0.142 0 0.293 0.041 0.464 0.128l2.566-5.314c-0.974-0.482-1.994-0.729-3.03-0.729 -7.557 0-11.511 11.905-11.511 23.665 0 11.761 3.954 23.665 11.511 23.665 1.04 0 2.066-0.248 3.045-0.736l-2.577-5.31C72.222 123.766 72.069 123.808 71.928 123.808zM72.084 117.893h5.833v-8.875h-5.833V117.893zM48.594 61.687c-2.002 0-5.677-6.739-5.677-17.749 0-11.009 3.675-17.748 5.677-17.748 0.143 0 0.297 0.04 0.465 0.126L51.627 21c-0.975-0.481-1.996-0.728-3.033-0.728 -7.557 0-11.51 11.904-11.51 23.665s3.953 23.666 11.51 23.666c1.043 0 2.064-0.248 3.045-0.737l-2.574-5.31C48.891 61.645 48.736 61.687 48.594 61.687zM48.75 55.771h5.834v-8.874H48.75V55.771zM25.416 73.52C13.969 73.52 5 87.813 5 106.06s8.969 32.54 20.416 32.54c11.448 0 20.418-14.294 20.418-32.54S36.864 73.52 25.416 73.52zM25.416 132.684c-7.902 0-14.583-12.191-14.583-26.624s6.68-26.623 14.583-26.623C33.321 79.437 40 91.627 40 106.06S33.321 132.684 25.416 132.684zM25.26 123.808c-2.002 0-5.676-6.739-5.676-17.748 0-11.01 3.674-17.75 5.676-17.75 0.143 0 0.297 0.041 0.465 0.128l2.569-5.314c-0.975-0.482-1.997-0.729-3.034-0.729 -7.556 0-11.51 11.905-11.51 23.665 0 11.761 3.954 23.665 11.51 23.665 1.043 0 2.065-0.248 3.045-0.736l-2.574-5.31C25.557 123.766 25.402 123.808 25.26 123.808zM25.416 117.893h5.834v-8.875h-5.834V117.893z"/>
    </g>
  </g>
</svg>
