<?xml version="1.0" encoding="utf-8"?>
<!-- Generator: Adobe Illustrator 16.0.0, SVG Export Plug-In . SVG Version: 6.00 Build 0)  -->
<!DOCTYPE svg PUBLIC "-//W3C//DTD SVG 1.1//EN" "http://www.w3.org/Graphics/SVG/1.1/DTD/svg11.dtd">
<svg version="1.1" id="圖層_1" xmlns="http://www.w3.org/2000/svg" xmlns:xlink="http://www.w3.org/1999/xlink" x="0px" y="0px"
	 width="249.9px" height="51px" viewBox="-17.15 -3.5 249.9 51" enable-background="new -17.15 -3.5 249.9 51" xml:space="preserve"
	>
<g>
	<g>
		<path fill="#FFFFFF" d="M58.289,26.82V16.675h2.522h0.255c0.884,0,1.613,0.241,2.181,0.727c0.573,0.48,0.86,1.114,0.86,1.896
			c0,0.88-0.36,1.584-1.087,2.109c1.105,0.515,1.655,1.36,1.655,2.536c0,0.865-0.303,1.559-0.906,2.09
			c-0.601,0.525-1.449,0.787-2.545,0.787H60.86H58.289z M59.302,21.039h1.51c1.523,0,2.283-0.58,2.283-1.741
			c0-0.549-0.209-0.968-0.628-1.262c-0.414-0.298-0.971-0.448-1.668-0.448h-1.497V21.039z M59.302,25.91h1.465h0.313
			c0.952,0,1.62-0.189,2.003-0.564c0.387-0.373,0.579-0.852,0.579-1.432c0-0.611-0.229-1.092-0.686-1.441
			c-0.459-0.346-1.157-0.52-2.097-0.52h-0.468h-1.109V25.91z"/>
		<path fill="#FFFFFF" d="M75.917,21.826c0-1.502,0.521-2.764,1.567-3.783c1.05-1.021,2.315-1.529,3.8-1.529
			c1.449,0,2.707,0.512,3.771,1.535c1.063,1.024,1.597,2.258,1.597,3.7c0,1.419-0.533,2.649-1.597,3.683
			c-1.063,1.031-2.321,1.549-3.771,1.549c-1.484,0-2.75-0.514-3.8-1.535C76.439,24.42,75.917,23.213,75.917,21.826 M76.93,21.813
			c0,1.144,0.427,2.138,1.276,2.987c0.851,0.842,1.875,1.264,3.078,1.264c1.195,0,2.22-0.42,3.07-1.258
			c0.854-0.85,1.28-1.865,1.28-3.058c0-1.19-0.438-2.205-1.319-3.052c-0.88-0.846-1.888-1.268-3.031-1.268
			c-1.203,0-2.228,0.429-3.078,1.287C77.357,19.571,76.93,20.605,76.93,21.813"/>
		<polygon fill="#FFFFFF" points="98.229,16.675 103.943,16.675 103.943,17.588 101.593,17.588 101.593,26.82 100.578,26.82 
			100.578,17.588 98.229,17.588 		"/>
		<path fill="#FFFFFF" d="M121.013,23.994c0,0.57,0.188,1.057,0.563,1.465c0.377,0.404,0.888,0.605,1.521,0.605
			c0.553,0,1.034-0.182,1.458-0.535c0.417-0.365,0.625-0.871,0.625-1.512c0-0.449-0.155-0.855-0.47-1.215
			c-0.309-0.365-0.979-0.693-2-0.983c-1.594-0.447-2.395-1.317-2.395-2.609c0-0.795,0.279-1.443,0.834-1.941
			c0.555-0.502,1.234-0.754,2.043-0.754c0.803,0,1.463,0.271,1.994,0.813c0.53,0.544,0.793,1.198,0.793,1.964h-1.014
			c0-0.507-0.18-0.943-0.535-1.31c-0.354-0.369-0.773-0.551-1.271-0.551c-0.562,0-1.004,0.174-1.334,0.524
			c-0.325,0.353-0.491,0.772-0.491,1.262c0,0.429,0.144,0.782,0.438,1.067c0.301,0.281,0.918,0.549,1.857,0.804
			c1.71,0.463,2.563,1.445,2.563,2.951c0,0.83-0.301,1.531-0.91,2.098c-0.604,0.564-1.336,0.846-2.188,0.846
			c-0.9,0-1.643-0.273-2.225-0.826c-0.584-0.551-0.873-1.273-0.873-2.16h1.016V23.994z"/>
		<polygon fill="#FFFFFF" points="139.295,16.675 140.309,16.675 140.309,21.145 145.487,21.145 145.487,16.675 146.501,16.675 
			146.501,26.82 145.487,26.82 145.487,22.061 140.309,22.061 140.309,26.82 139.295,26.82 		"/>
		<path fill="#FFFFFF" d="M157.333,21.826c0-1.502,0.523-2.764,1.566-3.783c1.049-1.021,2.316-1.529,3.801-1.529
			c1.447,0,2.707,0.512,3.771,1.535c1.063,1.024,1.594,2.258,1.594,3.7c0,1.419-0.531,2.649-1.594,3.683
			c-1.064,1.031-2.324,1.549-3.771,1.549c-1.483,0-2.752-0.514-3.801-1.535C157.856,24.42,157.333,23.213,157.333,21.826
			 M158.346,21.813c0,1.144,0.425,2.138,1.276,2.987c0.848,0.842,1.878,1.264,3.078,1.264c1.195,0,2.217-0.42,3.07-1.258
			c0.852-0.85,1.282-1.865,1.282-3.058c0-1.19-0.444-2.205-1.321-3.052c-0.879-0.846-1.889-1.268-3.031-1.268
			c-1.2,0-2.23,0.429-3.078,1.287C158.771,19.571,158.346,20.605,158.346,21.813"/>
		<path fill="#FFFFFF" d="M186.356,24.207h1.137c-1.18,1.848-2.715,2.775-4.605,2.775c-1.482,0-2.754-0.5-3.806-1.512
			c-1.048-1.004-1.574-2.221-1.574-3.646c0-1.502,0.521-2.763,1.554-3.783c1.045-1.021,2.299-1.529,3.774-1.529
			c0.956,0,1.854,0.257,2.688,0.768c0.834,0.512,1.459,1.181,1.863,2.01h-1.135c-0.383-0.557-0.895-1.007-1.528-1.349
			c-0.635-0.344-1.267-0.513-1.884-0.513c-1.191,0-2.215,0.429-3.059,1.287c-0.838,0.855-1.264,1.888-1.264,3.097
			c0,1.144,0.436,2.138,1.297,2.987c0.871,0.842,1.896,1.266,3.082,1.266C184.231,26.066,185.383,25.445,186.356,24.207"/>
		<polygon fill="#FFFFFF" points="198.802,26.82 198.802,16.675 199.821,16.675 199.821,22.543 204.504,16.675 205.8,16.675 
			201.749,21.668 205.8,26.82 204.536,26.82 201.116,22.424 199.821,24.045 199.821,26.82 		"/>
	</g>
	<g>
		<path fill="#FFFFFF" d="M9.8,2.01v18.05c0,7.805,5.875,14.254,13.436,15.178v7.025h3.723v-7.025
			c7.561-0.924,13.438-7.373,13.438-15.178V2.01H9.8z M37.435,20.059c0,6.806-5.535,12.333-12.337,12.333
			c-6.802,0-12.335-5.527-12.335-12.333V4.971h24.672V20.059z"/>
		<g>
			<path fill="#FFFFFF" d="M19.048,10.716c-2.595,0-4.708,2.11-4.708,4.708c0,0.565,0.102,1.112,0.287,1.616l8.501,0.72
				c0.396-0.689,0.626-1.488,0.626-2.336C23.754,12.826,21.643,10.716,19.048,10.716z"/>
			<path fill="#FFFFFF" d="M19.64,20.089c0.025-0.003,0.052-0.007,0.08-0.01c0.094-0.013,0.188-0.028,0.281-0.047
				c0.004-0.001,0.008-0.002,0.012-0.003c0.09-0.021,0.179-0.042,0.263-0.064c0.025-0.007,0.05-0.014,0.072-0.021
				c0.073-0.021,0.146-0.045,0.215-0.069c0.022-0.006,0.041-0.012,0.059-0.019c0.182-0.065,0.356-0.142,0.528-0.224
				c0.016-0.011,0.03-0.019,0.046-0.026c0.076-0.038,0.152-0.081,0.224-0.122c0.012-0.005,0.019-0.01,0.027-0.015
				c0.166-0.101,0.328-0.21,0.485-0.333c0.006-0.006,0.014-0.011,0.02-0.016c0.233-0.186,0.452-0.392,0.648-0.616
				c0-0.001,0.001-0.002,0.003-0.004c0.714-0.825,1.151-1.901,1.151-3.077c0-2.598-2.111-4.708-4.706-4.708
				c-2.595,0-4.708,2.111-4.708,4.709c0,0.682,0.148,1.327,0.411,1.915c0.009,0.021,0.018,0.041,0.027,0.061
				c0.043,0.097,0.091,0.189,0.141,0.281c0.007,0.011,0.014,0.022,0.021,0.037c0.045,0.081,0.097,0.162,0.146,0.243
				c0.012,0.017,0.022,0.034,0.037,0.054c0.056,0.086,0.116,0.168,0.176,0.252c0.015,0.015,0.027,0.031,0.038,0.047
				c0.057,0.074,0.117,0.145,0.18,0.215c0.01,0.012,0.021,0.024,0.03,0.036c0.071,0.076,0.143,0.151,0.215,0.225
				c0.016,0.016,0.035,0.03,0.051,0.046c0.072,0.068,0.144,0.136,0.221,0.198c0.005,0.004,0.009,0.009,0.015,0.014
				c0.08,0.066,0.164,0.131,0.25,0.19c0.019,0.016,0.037,0.029,0.056,0.042c0.086,0.058,0.173,0.117,0.263,0.172
				c0.007,0.006,0.015,0.009,0.021,0.013c0.085,0.05,0.171,0.098,0.259,0.142c0.021,0.011,0.043,0.021,0.063,0.034
				c0.093,0.045,0.188,0.09,0.283,0.129c0.018,0.007,0.033,0.012,0.049,0.02c0.087,0.036,0.176,0.068,0.265,0.097
				c0.02,0.006,0.038,0.013,0.061,0.02c0.1,0.033,0.2,0.061,0.302,0.086c0.022,0.004,0.044,0.01,0.068,0.015
				c0.095,0.023,0.19,0.043,0.286,0.059c0.014,0.003,0.027,0.005,0.042,0.007c0.104,0.017,0.212,0.027,0.32,0.041
				c0.027,0.001,0.052,0.003,0.076,0.005c0.11,0.007,0.222,0.014,0.337,0.014c0.099,0,0.195-0.005,0.291-0.01
				c0.028-0.003,0.056-0.004,0.086-0.007C19.495,20.104,19.568,20.097,19.64,20.089z"/>
			<path fill="#FFFFFF" d="M24.713,17.891c-0.956,2.184-3.136,3.713-5.665,3.713c-1.883,0-3.573-0.849-4.708-2.181v0.427
				c0,5.943,4.818,10.757,10.758,10.757s10.756-4.814,10.756-10.757v-1.019L24.713,17.891z"/>
			<g>
				<path fill="#FFFFFF" d="M30.303,13.17c-3.061,0-5.55,2.49-5.55,5.551s2.489,5.552,5.55,5.552s5.551-2.492,5.551-5.552
					S33.363,13.17,30.303,13.17z"/>
			</g>
			<path fill="#FFFFFF" d="M24.992,17.112c0,0-0.113,0.397-0.279,0.779c-0.163,0.382,0.465,0.304,0.465,0.304
				s0.361-0.462,0.382-0.492c0.019-0.027,0.158-0.346,0.158-0.346s-0.011-0.289-0.064-0.296
				C25.597,17.054,24.992,17.112,24.992,17.112z"/>
		</g>
	</g>
</g>
</svg>
