<?xml version="1.0" encoding="utf-8"?>
<!-- Generator: Adobe Illustrator 16.0.0, SVG Export Plug-In . SVG Version: 6.00 Build 0)  -->
<!DOCTYPE svg PUBLIC "-//W3C//DTD SVG 1.1//EN" "http://www.w3.org/Graphics/SVG/1.1/DTD/svg11.dtd">
<svg version="1.1" id="Layer_1" xmlns="http://www.w3.org/2000/svg" xmlns:xlink="http://www.w3.org/1999/xlink" x="0px" y="0px"
	 width="145px" height="450px" viewBox="0 0 145 450" enable-background="new 0 0 145 450" xml:space="preserve">
<path fill="#C42F48" d="M121.421,450.5H23.579C11.128,450.5,1,440.37,1,427.916V180.169c0-25.112,2.992-40.47,19.345-54.739
	c2.15-1.875,4.407-3.617,6.619-5.322c7.453-5.741,11.668-9.277,11.668-15.217V14.556c0-8.299,6.751-15.056,15.052-15.056h37.631
	c8.302,0,15.053,6.756,15.053,15.056v90.335c0,5.94,4.216,9.476,11.668,15.217c2.212,1.705,4.469,3.448,6.623,5.33
	C141.008,139.699,144,155.057,144,180.169v247.747C144,440.37,133.872,450.5,121.421,450.5z"/>
</svg>
