<svg xmlns="http://www.w3.org/2000/svg" xmlns:xlink="http://www.w3.org/1999/xlink" version="1.1" id="Layer_1" x="0px" y="0px" width="150px" height="150px" viewBox="0 0 150 150" enable-background="new 0 0 150 150" xml:space="preserve">
  <g>
    <path fill="#fff" d="M27.69 57.332c3.72-3.222 7.225-6.265 7.225-12.983h9.249c0 6.719 3.51 9.762 7.222 12.983 4.535 3.93 5.114 4.809 5.114 14.604h6.164c0-10.502-0.663-13.535-7.223-19.223 -3.636-3.154-5.105-4.582-5.105-8.364v-30.65c0-3.38-2.768-6.13-6.172-6.13h-9.249c-3.399 0-6.165 2.75-6.165 6.13v30.65c0 3.782-1.477 5.21-5.113 8.364 -6.553 5.688-7.223 8.721-7.223 19.223h6.172C22.586 62.141 23.166 61.262 27.69 57.332zM34.915 13.698h9.249v24.521h-9.249V13.698zM108.915 44.349h9.249c0 6.719 3.51 9.762 7.222 12.983 4.535 3.93 5.114 4.809 5.114 14.604h6.164c0-10.502-0.663-13.535-7.223-19.223 -3.636-3.154-5.105-4.582-5.105-8.364v-30.65c0-3.38-2.768-6.13-6.172-6.13h-9.249c-3.399 0-6.165 2.75-6.165 6.13v30.65c0 3.215-1.033 4.679-3.507 6.943l4.18 4.509C106.815 52.694 108.915 49.693 108.915 44.349zM108.915 13.698h9.249v24.521h-9.249V13.698zM71.915 44.349h9.249c0 6.719 3.51 9.762 7.222 12.983 4.535 3.93 5.114 4.809 5.114 14.604h6.164c0-10.502-0.663-13.535-7.223-19.223 -3.636-3.154-5.105-4.582-5.105-8.364v-30.65c0-3.38-2.768-6.13-6.172-6.13h-9.249c-3.399 0-6.165 2.75-6.165 6.13v30.65c0 3.215-1.033 4.679-3.507 6.943l4.18 4.509C69.815 52.694 71.915 49.693 71.915 44.349zM71.915 13.698h9.249v24.521h-9.249V13.698zM1 75.003v30.646h6.168V81.13h135.667v24.519H149V75.003H1zM142.835 136.298H7.168v-24.519H1v30.652h148v-30.652h-6.165V136.298zM10.25 111.779h129.5v-6.131H10.25V111.779zM13.332 90.326v6.128H19.5v-6.128H13.332zM130.5 90.326v6.128h6.164v-6.128H130.5zM19.5 127.104v-6.132h-6.168v6.132H19.5zM136.664 127.104v-6.132H130.5v6.132H136.664z"/>
  </g>
</svg>
