<?xml version="1.0" encoding="utf-8"?>
<!-- Generator: Adobe Illustrator 16.0.0, SVG Export Plug-In . SVG Version: 6.00 Build 0)  -->
<!DOCTYPE svg PUBLIC "-//W3C//DTD SVG 1.1//EN" "http://www.w3.org/Graphics/SVG/1.1/DTD/svg11.dtd">
<svg version="1.1" id="Layer_1" xmlns="http://www.w3.org/2000/svg" xmlns:xlink="http://www.w3.org/1999/xlink" x="0px" y="0px"
	 width="115px" height="35px" viewBox="0 0 115 35" enable-background="new 0 0 115 35" xml:space="preserve">
<path opacity="0.5" fill="#FFFFFF" d="M93.445,6.797c-2.926,0-5.238,0.772-7.014,1.129l-0.546,4.445
	c0.89-0.423,3.675-1.201,5.988-1.271c2.319-0.071,3.674,0.421,3.194,2.396c-6.862,0-11.489,1.41-12.438,5.855
	c-1.367,7.625,7.002,7.414,10.332,4.092l-0.402,1.83h6.115l2.656-12.125C102.412,7.997,97.727,6.725,93.445,6.797z M93.85,19.215
	c-0.34,1.623-1.632,2.327-3.199,2.393c-1.354,0.08-2.586-1.123-1.697-2.534c0.683-1.199,2.584-1.478,3.738-1.478
	c0.479,0,1.024,0,1.504,0C94.055,18.15,93.982,18.65,93.85,19.215z"/>
<polygon opacity="0.5" fill="#FFFFFF" points="106.566,2 101.502,25.273 107.715,25.273 112.85,2 "/>
<path opacity="0.5" fill="#FFFFFF" d="M77.997,2.068H66.623L61.57,25.273h6.611l1.704-7.678h4.708c4.631,0,8.454-2.823,9.471-7.625
	C85.229,4.54,81.273,2.068,77.997,2.068z M77.796,9.97c-0.41,1.763-2.185,3.178-3.887,3.178h-3.062l1.357-6.351h3.277
	C77.186,6.797,78.201,8.209,77.796,9.97z"/>
<path opacity="0.5" fill="#FFFFFF" d="M33.828,6.797c-2.892,0-5.172,0.772-6.852,1.129l-0.539,4.445
	c0.807-0.423,3.562-1.201,5.846-1.271c2.281-0.071,3.624,0.421,3.224,2.396c-6.789,0-11.354,1.41-12.297,5.855
	c-1.344,7.625,6.919,7.414,10.148,4.092l-0.404,1.83h6.115l2.622-12.125C42.764,7.997,38.06,6.725,33.828,6.797z M34.296,19.215
	c-0.337,1.623-1.681,2.327-3.224,2.393c-1.341,0.08-2.486-1.123-1.611-2.534c0.668-1.199,2.554-1.478,3.629-1.478
	c0.537,0,1.004,0,1.543,0C34.499,18.15,34.363,18.65,34.296,19.215z"/>
<polygon opacity="0.5" fill="#FFFFFF" points="57.432,7.13 51.451,17.938 50.463,7.13 44.35,7.13 46.849,25.391 42.379,33 
	49.213,33 63.739,7.13 "/>
<path opacity="0.5" fill="#FFFFFF" d="M18.621,2.068H7.206L2.151,25.273h6.697l1.643-7.68h4.78c4.581,0,8.409-2.823,9.435-7.625
	C25.863,4.54,21.966,2.068,18.621,2.068z M18.416,9.97c-0.408,1.763-2.12,3.178-3.826,3.178h-3.144l1.435-6.351h3.282
	C17.799,6.797,18.894,8.209,18.416,9.97z"/>
</svg>
