<?xml version="1.0" encoding="utf-8"?>
<!-- Generator: Adobe Illustrator 16.0.0, SVG Export Plug-In . SVG Version: 6.00 Build 0)  -->
<!DOCTYPE svg PUBLIC "-//W3C//DTD SVG 1.1//EN" "http://www.w3.org/Graphics/SVG/1.1/DTD/svg11.dtd">
<svg version="1.1" id="Layer_1" xmlns="http://www.w3.org/2000/svg" xmlns:xlink="http://www.w3.org/1999/xlink" x="0px" y="0px"
	 width="300px" height="60px" viewBox="0 0 300 60" enable-background="new 0 0 300 60" xml:space="preserve">
<g>
	<path fill="#FFFFFF" d="M78.315,36.78V22.09h3.654h0.369c1.279,0,2.334,0.352,3.159,1.054c0.83,0.696,1.246,1.611,1.246,2.745
		c0,1.275-0.526,2.294-1.575,3.055c1.598,0.747,2.397,1.972,2.397,3.672c0,1.25-0.439,2.259-1.314,3.025
		c-0.871,0.761-2.099,1.14-3.683,1.14h-0.533H78.315z M79.785,28.412h2.185c2.205,0,3.305-0.841,3.305-2.523
		c0-0.793-0.304-1.401-0.906-1.827c-0.601-0.432-1.406-0.647-2.418-0.647h-2.165V28.412z M79.785,35.457h2.117h0.454
		c1.379,0,2.345-0.271,2.9-0.813c0.56-0.541,0.839-1.229,0.839-2.067c0-0.888-0.331-1.586-0.994-2.088
		c-0.663-0.504-1.677-0.754-3.035-0.754h-0.678h-1.604V35.457z"/>
	<path fill="#FFFFFF" d="M103.838,29.551c0-2.177,0.758-4.004,2.271-5.479c1.521-1.477,3.354-2.215,5.5-2.215
		c2.1,0,3.921,0.743,5.461,2.223c1.54,1.483,2.31,3.268,2.31,5.356c0,2.056-0.77,3.833-2.31,5.334
		c-1.54,1.496-3.361,2.243-5.461,2.243c-2.146,0-3.979-0.741-5.5-2.224C104.596,33.302,103.838,31.556,103.838,29.551
		 M105.308,29.532c0,1.656,0.615,3.097,1.845,4.32c1.231,1.224,2.717,1.836,4.457,1.836c1.733,0,3.215-0.608,4.446-1.826
		c1.236-1.225,1.855-2.699,1.855-4.426c0-1.722-0.637-3.193-1.914-4.418c-1.27-1.224-2.732-1.836-4.388-1.836
		c-1.74,0-3.226,0.622-4.457,1.864C105.923,26.285,105.308,27.78,105.308,29.532"/>
	<polygon fill="#FFFFFF" points="136.143,22.09 144.415,22.09 144.415,23.414 141.014,23.414 141.014,36.78 139.544,36.78 
		139.544,23.414 136.143,23.414 	"/>
	<path fill="#FFFFFF" d="M169.13,32.683c0,0.826,0.271,1.534,0.813,2.127c0.547,0.586,1.281,0.879,2.203,0.879
		c0.799,0,1.501-0.261,2.107-0.782c0.605-0.528,0.908-1.257,0.908-2.185c0-0.65-0.227-1.236-0.676-1.76
		c-0.451-0.528-1.418-1.001-2.9-1.42c-2.308-0.65-3.461-1.911-3.461-3.779c0-1.153,0.4-2.091,1.2-2.812
		c0.804-0.729,1.794-1.093,2.966-1.093c1.155,0,2.113,0.393,2.881,1.18c0.768,0.786,1.15,1.732,1.15,2.841h-1.47
		c0-0.735-0.259-1.365-0.773-1.895c-0.51-0.534-1.12-0.802-1.836-0.802c-0.813,0-1.456,0.256-1.934,0.763
		c-0.477,0.51-0.716,1.118-0.716,1.827c0,0.618,0.215,1.133,0.64,1.546c0.431,0.406,1.327,0.793,2.686,1.16
		c2.475,0.671,3.712,2.094,3.712,4.271c0,1.206-0.438,2.217-1.313,3.036c-0.877,0.818-1.934,1.228-3.171,1.228
		c-1.302,0-2.373-0.4-3.218-1.199c-0.844-0.798-1.268-1.843-1.268-3.132H169.13z"/>
	<polygon fill="#FFFFFF" points="195.595,22.09 197.064,22.09 197.064,28.565 204.564,28.565 204.564,22.09 206.033,22.09 
		206.033,36.78 204.564,36.78 204.564,29.89 197.064,29.89 197.064,36.78 195.595,36.78 	"/>
	<path fill="#FFFFFF" d="M221.712,29.551c0-2.177,0.757-4.004,2.271-5.479c1.522-1.477,3.354-2.215,5.5-2.215
		c2.1,0,3.921,0.743,5.46,2.223c1.541,1.483,2.31,3.268,2.31,5.356c0,2.056-0.769,3.833-2.31,5.334
		c-1.539,1.496-3.36,2.243-5.46,2.243c-2.146,0-3.978-0.741-5.5-2.224C222.469,33.302,221.712,31.556,221.712,29.551
		 M223.181,29.532c0,1.656,0.616,3.097,1.847,4.32s2.716,1.836,4.456,1.836c1.732,0,3.214-0.608,4.445-1.826
		c1.238-1.225,1.856-2.699,1.856-4.426c0-1.722-0.638-3.193-1.914-4.418c-1.27-1.224-2.732-1.836-4.388-1.836
		c-1.74,0-3.226,0.622-4.456,1.864C223.797,26.285,223.181,27.78,223.181,29.532"/>
	<path fill="#FFFFFF" d="M263.737,32.992h1.644c-1.707,2.681-3.931,4.022-6.668,4.022c-2.153,0-3.99-0.73-5.51-2.186
		c-1.521-1.456-2.28-3.215-2.28-5.277c0-2.178,0.75-4.004,2.251-5.48c1.508-1.476,3.328-2.214,5.461-2.214
		c1.385,0,2.685,0.371,3.895,1.112c1.211,0.741,2.11,1.71,2.696,2.909h-1.642c-0.555-0.805-1.293-1.456-2.214-1.952
		s-1.831-0.744-2.725-0.744c-1.728,0-3.203,0.622-4.428,1.864c-1.219,1.239-1.826,2.732-1.826,4.485
		c0,1.656,0.624,3.097,1.875,4.321c1.257,1.223,2.744,1.836,4.465,1.836C260.659,35.689,262.327,34.79,263.737,32.992"/>
	<polygon fill="#FFFFFF" points="281.756,36.78 281.756,22.09 283.226,22.09 283.226,30.587 290.011,22.09 291.885,22.09 
		286.019,29.32 291.885,36.78 290.059,36.78 285.1,30.411 283.226,32.76 283.226,36.78 	"/>
	<g>
		<path fill="#FFFFFF" d="M8.115,0.862v26.129c0,11.299,8.507,20.644,19.452,21.979v10.168h5.392V48.97
			c10.945-1.335,19.452-10.68,19.452-21.979V0.862H8.115z M48.122,26.991c0,9.849-8.011,17.86-17.859,17.86
			c-9.848,0-17.859-8.012-17.859-17.86V5.149h35.719V26.991z"/>
		<g>
			<path fill="#FFFFFF" d="M21.503,13.465c-3.757,0-6.813,3.057-6.813,6.814c0,0.822,0.146,1.612,0.415,2.343l12.307,1.039
				c0.574-0.998,0.904-2.152,0.904-3.382C28.316,16.521,25.26,13.465,21.503,13.465z"/>
			<path fill="#FFFFFF" d="M22.36,27.035c0.038-0.004,0.077-0.01,0.115-0.015c0.136-0.02,0.273-0.042,0.407-0.07
				c0.006-0.001,0.011-0.002,0.018-0.003c0.129-0.028,0.257-0.06,0.383-0.094c0.034-0.009,0.069-0.019,0.104-0.029
				c0.104-0.03,0.209-0.063,0.313-0.099c0.028-0.009,0.057-0.019,0.083-0.028c0.264-0.093,0.516-0.203,0.763-0.325
				c0.023-0.013,0.046-0.023,0.067-0.035c0.11-0.057,0.22-0.116,0.327-0.179c0.013-0.007,0.023-0.014,0.035-0.021
				c0.245-0.146,0.478-0.305,0.703-0.479c0.009-0.009,0.021-0.017,0.029-0.023c0.341-0.268,0.654-0.567,0.938-0.895
				c0-0.001,0.001-0.003,0.004-0.005c1.035-1.193,1.667-2.753,1.667-4.455c0-3.758-3.057-6.814-6.813-6.814
				s-6.813,3.057-6.813,6.814c0,0.985,0.213,1.925,0.591,2.772c0.014,0.029,0.027,0.06,0.041,0.09
				c0.064,0.139,0.133,0.273,0.205,0.407c0.009,0.016,0.019,0.033,0.029,0.051c0.066,0.12,0.14,0.237,0.213,0.354
				c0.018,0.025,0.032,0.051,0.05,0.076c0.083,0.125,0.17,0.247,0.259,0.367c0.018,0.022,0.036,0.043,0.053,0.067
				c0.084,0.105,0.17,0.21,0.26,0.312c0.015,0.017,0.03,0.036,0.045,0.053c0.102,0.11,0.204,0.218,0.313,0.322
				c0.023,0.023,0.047,0.046,0.071,0.069c0.104,0.098,0.21,0.194,0.32,0.287c0.009,0.007,0.014,0.014,0.023,0.021
				c0.115,0.095,0.235,0.187,0.358,0.275c0.028,0.019,0.056,0.039,0.084,0.06c0.124,0.086,0.249,0.17,0.38,0.248
				c0.01,0.008,0.02,0.012,0.032,0.019c0.122,0.073,0.245,0.142,0.372,0.207c0.03,0.016,0.061,0.031,0.09,0.046
				c0.135,0.067,0.271,0.131,0.41,0.188c0.024,0.01,0.049,0.018,0.072,0.028c0.125,0.051,0.253,0.098,0.382,0.141
				c0.028,0.009,0.057,0.02,0.086,0.029c0.144,0.045,0.291,0.086,0.438,0.123c0.033,0.007,0.065,0.015,0.099,0.022
				c0.137,0.031,0.274,0.06,0.413,0.083c0.021,0.004,0.041,0.008,0.063,0.011c0.152,0.024,0.309,0.041,0.466,0.057
				c0.036,0.002,0.073,0.004,0.109,0.008c0.162,0.011,0.322,0.02,0.486,0.02c0.142,0,0.282-0.007,0.421-0.015
				c0.042-0.003,0.083-0.006,0.124-0.01C22.152,27.059,22.257,27.049,22.36,27.035z"/>
			<path fill="#FFFFFF" d="M29.705,23.855c-1.384,3.159-4.538,5.374-8.202,5.374c-2.726,0-5.171-1.229-6.813-3.156v0.615
				c0,8.602,6.973,15.574,15.572,15.574c8.602,0,15.574-6.973,15.574-15.574v-1.473L29.705,23.855z"/>
			<g>
				<path fill="#FFFFFF" d="M37.8,17.018c-4.431,0-8.035,3.604-8.035,8.035c0,4.432,3.604,8.038,8.035,8.038
					s8.037-3.606,8.037-8.038C45.837,20.622,42.23,17.018,37.8,17.018z"/>
			</g>
			<path fill="#FFFFFF" d="M30.108,22.725c0,0-0.164,0.577-0.402,1.131c-0.236,0.552,0.671,0.435,0.671,0.435
				s0.527-0.668,0.554-0.708c0.027-0.041,0.231-0.504,0.231-0.504s-0.015-0.418-0.097-0.429
				C30.985,22.639,30.108,22.725,30.108,22.725z"/>
		</g>
	</g>
</g>
</svg>
