<?xml version="1.0" encoding="utf-8"?>
<!-- Generator: Adobe Illustrator 16.0.0, SVG Export Plug-In . SVG Version: 6.00 Build 0)  -->
<!DOCTYPE svg PUBLIC "-//W3C//DTD SVG 1.1//EN" "http://www.w3.org/Graphics/SVG/1.1/DTD/svg11.dtd">
<svg version="1.1" id="Layer_1" xmlns="http://www.w3.org/2000/svg" xmlns:xlink="http://www.w3.org/1999/xlink" x="0px" y="0px"
	 width="600px" height="100px" viewBox="0 0 600 100" enable-background="new 0 0 600 100" xml:space="preserve">
<path d="M7.5,32.927h585c4.143,0,7.5,3.358,7.5,7.5c0,4.143-3.357,7.5-7.5,7.5H7.5c-4.142,0-7.5-3.357-7.5-7.5
	C0,36.285,3.358,32.927,7.5,32.927z"/>
<path fill="#211031" d="M7.5,34.927h585c4.143,0,7.5,3.358,7.5,7.5c0,4.143-3.357,7.5-7.5,7.5H7.5c-4.142,0-7.5-3.357-7.5-7.5
	C0,38.285,3.358,34.927,7.5,34.927z"/>
<path fill="#A8ACD7" d="M8.925,36.927h395.15c2.72,0,4.925,2.238,4.925,5c0,2.762-2.205,5-4.925,5H8.925
	c-2.72,0-4.925-2.238-4.925-5C4,39.165,6.205,36.927,8.925,36.927z"/>
<g opacity="0.2">
	<g>
		<path fill="#EEEEEE" d="M9.33,10.631c-2.832-0.527-5.088-1.056-5.136-3.168C4.122,4.99,7.314,4.174,9.282,4.174
			c1.8,0.024,4.104,0.624,5.017,2.329l1.128-0.624c-1.08-1.969-3.433-2.784-5.593-2.904v-2.4h-1.08v2.4
			C6.066,3.118,2.826,4.391,2.897,7.511c0.096,3.146,3.145,3.721,6.217,4.32c2.76,0.528,5.544,1.08,5.521,3.601
			c0,2.544-3.289,3.288-5.353,3.288c-2.04,0-4.705-0.646-5.713-2.616L2.417,16.68c1.152,2.256,3.888,3.192,6.336,3.288v2.328H9.81
			v-2.328c2.736-0.12,6.097-1.344,6.121-4.513C15.931,11.831,12.57,11.255,9.33,10.631z M26.922,12.599
			c2.976,0,6.432-1.392,6.432-4.824c-0.024-3.624-3.384-4.896-6.48-4.896c-3.024,0-6.433,1.104-6.433,4.681h1.272
			c0-2.784,2.928-3.553,5.16-3.553c2.304,0,5.281,0.816,5.281,3.769c0,2.833-3.097,3.648-5.281,3.648
			c-3.096,0-6.528,0.96-6.528,4.681v3.792h12.841v-1.248H21.618v-2.568C21.618,13.199,24.474,12.623,26.922,12.599z M45.562,9.719
			c-2.088,0-4.032,0.456-5.376,2.376V7.511c0-2.328,2.568-3.505,5.113-3.505c2.76,0,4.968,1.081,5.112,3.097h1.296
			c-0.216-2.832-3.048-4.248-6.408-4.248c-3.192,0-6.385,1.488-6.385,4.656v7.345c0,3.792,3.432,5.232,6.625,5.232
			c3.168,0,6.577-1.368,6.577-5.185C52.115,11.184,48.73,9.719,45.562,9.719z M45.538,18.864c-2.4,0-5.353-0.96-5.329-3.984
			c0.024-2.761,2.953-3.984,5.353-3.984s5.281,1.248,5.281,4.008C50.843,17.976,47.938,18.864,45.538,18.864z M56.978,9.479v4.008
			c0,8.809,12.865,8.784,12.865,0V9.479C69.843,0.694,56.978,0.67,56.978,9.479z M68.57,13.487c0,7.177-10.321,7.2-10.321,0V9.479
			c0-7.177,10.321-7.153,10.321,0V13.487z"/>
	</g>
</g>
<g>
	<g>
		<path fill="#A8ACD7" d="M169.602,9.671c-2.016-0.24-3.912-0.527-3.912-2.112c0-1.68,1.824-2.256,3.816-2.256
			c1.656,0,3.432,0.792,4.056,1.824l2.592-1.2c-1.08-2.208-2.952-2.977-4.993-3.288V0.551h-3.048v2.088
			c-2.784,0.336-5.569,1.775-5.569,4.92c0,3.984,3.36,4.585,6.793,4.969c2.232,0.264,4.224,0.84,4.224,2.424
			c0,1.872-1.992,2.616-4.152,2.616c-1.992,0-4.128-0.983-4.776-2.52l-2.832,1.199c1.128,2.641,3.624,3.865,6.313,4.104v2.28h3.048
			v-2.4c2.977-0.216,5.689-2.039,5.689-5.28C176.851,10.728,173.106,10.104,169.602,9.671z M186.394,15.504
			c0-1.825,2.256-2.185,3.648-2.185c3.528,0,6.745-0.816,6.745-5.089c0-3.984-3.648-5.353-7.008-5.353
			c-3.097,0-6.457,1.536-6.48,5.089h3.144c0.024-1.512,1.728-2.353,3.384-2.353c2.16,0,3.816,0.864,3.816,2.688
			c0,1.944-2.328,2.16-3.601,2.16c-3.312,0-6.816,1.152-6.816,5.017c0,1.488,0,2.952,0,4.416h13.609v-2.952h-10.441V15.504z
			 M213.17,11.087c1.512-0.624,2.16-2.016,2.16-3.168c0-3.36-3.264-5.112-6.888-5.112c-3.648,0-6.769,1.728-6.769,5.112
			c0,1.296,0.672,2.544,2.112,3.313c-1.728,0.695-2.544,2.304-2.568,3.6c-0.072,3.937,3.577,5.425,7.225,5.449
			c3.744,0.023,7.344-1.536,7.272-5.449C215.691,13.535,214.898,11.783,213.17,11.087z M208.442,5.446
			c2.136,0,3.624,0.96,3.576,2.376c-0.048,1.465-1.608,2.353-3.552,2.353c-1.848,0-3.504-0.888-3.552-2.353
			C204.866,6.671,206.066,5.446,208.442,5.446z M208.466,17.399c-2.568,0-3.96-1.224-3.937-2.52c0.024-1.657,1.968-2.4,3.937-2.4
			c2.112,0,3.912,0.743,3.936,2.4C212.426,16.199,211.034,17.399,208.466,17.399z M219.857,10.271v2.424
			c0,10.032,14.737,10.009,14.737,0v-2.424C234.595,0.263,219.857,0.238,219.857,10.271z M231.451,12.695
			c0,6.097-8.449,6.097-8.449,0v-2.424c0-6.073,8.449-6.001,8.449,0V12.695z"/>
	</g>
</g>
<g opacity="0.2">
	<path fill="#EEEEEE" d="M521.33,10.631c-2.832-0.527-5.088-1.056-5.137-3.168c-0.071-2.473,3.121-3.289,5.089-3.289
		c1.8,0.024,4.104,0.624,5.017,2.329l1.128-0.624c-1.08-1.969-3.433-2.784-5.593-2.904v-2.4h-1.08v2.4
		c-2.688,0.144-5.929,1.416-5.855,4.536c0.096,3.146,3.145,3.721,6.217,4.32c2.76,0.528,5.544,1.08,5.521,3.601
		c0,2.544-3.288,3.288-5.353,3.288c-2.04,0-4.704-0.646-5.713-2.616l-1.151,0.576c1.151,2.256,3.888,3.192,6.336,3.288v2.328h1.057
		v-2.328c2.736-0.12,6.097-1.344,6.12-4.513C527.931,11.831,524.57,11.255,521.33,10.631z M541.274,11.231
		c1.968-0.36,3.552-2.017,3.552-3.913c-0.023-2.496-2.208-4.44-6.192-4.44c-2.808,0-6.24,0.841-6.265,4.32h1.225
		c0-2.855,3.024-3.24,5.064-3.24c3.336,0,5.017,1.608,4.992,3.36c-0.023,1.608-1.704,3.409-5.04,3.409h-2.714v1.079h2.784
		c3.457,0,5.232,1.849,5.232,3.601c0,1.896-1.68,3.505-5.208,3.505c-2.136,0-5.328-0.265-5.354-3.289h-1.248
		c0,3.648,3.673,4.489,6.576,4.489c4.226,0,6.457-2.112,6.457-4.753C545.139,13.295,543.291,11.615,541.274,11.231z M549.577,9.479
		v4.008c0,8.809,12.865,8.784,12.865,0V9.479C562.442,0.694,549.577,0.67,549.577,9.479z M561.171,13.487
		c0,7.177-10.321,7.2-10.321,0V9.479c0-7.177,10.321-7.153,10.321,0V13.487z M566.979,9.479v4.008c0,8.809,12.864,8.784,12.864,0
		V9.479C579.843,0.694,566.979,0.67,566.979,9.479z M578.57,13.487c0,7.177-10.32,7.2-10.32,0V9.479c0-7.177,10.32-7.153,10.32,0
		V13.487z"/>
</g>
<g>
	<g>
		<path fill="#A8ACD7" d="M8.314,90.111c0-1.822,2.256-2.184,3.648-2.184c3.528,0,6.745-0.816,6.745-5.089
			c0-3.983-3.648-5.353-7.009-5.353c-3.096,0-6.457,1.535-6.48,5.089h3.145c0.024-1.513,1.728-2.353,3.384-2.353
			c2.16,0,3.816,0.863,3.816,2.688c0,1.943-2.329,2.16-3.601,2.16c-3.312,0-6.816,1.152-6.816,5.017v4.416h13.609v-2.952H8.314
			V90.111z M25.234,90.111c0-1.822,2.256-2.184,3.648-2.184c3.528,0,6.745-0.816,6.745-5.089c0-3.983-3.648-5.353-7.009-5.353
			c-3.096,0-6.456,1.535-6.48,5.089h3.145c0.024-1.513,1.728-2.353,3.384-2.353c2.16,0,3.816,0.863,3.816,2.688
			c0,1.943-2.328,2.16-3.601,2.16c-3.312,0-6.816,1.152-6.816,5.017v4.416h13.609v-2.952H25.234V90.111z M38.818,84.88v2.425
			c0,10.033,14.737,10.01,14.737,0V84.88C53.555,74.871,38.818,74.848,38.818,84.88z M50.411,87.305c0,6.098-8.449,6.098-8.449,0
			V84.88c0-6.071,8.449-6,8.449,0V87.305z M71.146,77.68c-2.64,0-5.28,0.024-7.921,0.024v16.801h3.168v-4.944h4.752
			C79.379,89.561,79.355,77.68,71.146,77.68z M71.146,86.656h-4.752v-5.952h4.752C75.179,80.704,75.203,86.656,71.146,86.656z
			 M85.69,82.313c-3.841,0-6.289,2.593-6.289,6.192c0,3.792,2.424,6.313,6.505,6.313c1.8,0,3.84-0.625,5.088-1.92l-1.872-1.85
			c-0.672,0.696-2.088,1.104-3.168,1.104c-2.064,0-3.336-1.057-3.528-2.521h9.241C92.123,84.761,89.65,82.313,85.69,82.313z
			 M82.474,87.209c0.432-1.536,1.729-2.305,3.313-2.305c1.68,0,2.88,0.769,3.072,2.305H82.474z M100.69,82.434
			c-3.768,0-6.121,2.782-6.121,6.168c0,3.407,2.304,6.168,6.145,6.168c3.841,0,6.168-2.761,6.168-6.168
			C106.882,85.216,104.458,82.434,100.69,82.434z M100.714,92.081c-2.136,0-3.216-1.681-3.216-3.479
			c0-1.776,1.104-3.504,3.216-3.504c1.968,0,3.216,1.728,3.216,3.504C103.93,90.4,102.85,92.081,100.714,92.081z M116.866,82.408
			c-1.344,0-2.928,0.576-3.84,1.896l-0.192-1.634h-2.736v16.777h2.928v-6.337c0.84,1.297,2.688,1.681,3.937,1.681
			c3.792,0,5.977-2.735,5.977-6.192C122.938,85.12,120.514,82.408,116.866,82.408z M116.65,91.961c-1.992,0-3.36-1.513-3.36-3.359
			c0-1.848,1.248-3.36,3.36-3.36c2.112,0,3.36,1.513,3.36,3.36C120.01,90.448,118.642,91.961,116.65,91.961z M126.297,94.505h2.904
			V77.729h-2.904V94.505z M138.729,82.313c-3.84,0-6.289,2.593-6.289,6.192c0,3.792,2.424,6.313,6.505,6.313
			c1.8,0,3.84-0.625,5.088-1.92l-1.872-1.85c-0.672,0.696-2.088,1.104-3.168,1.104c-2.064,0-3.336-1.057-3.528-2.521h9.241
			C145.162,84.761,142.69,82.313,138.729,82.313z M135.513,87.209c0.432-1.536,1.729-2.305,3.313-2.305
			c1.68,0,2.88,0.769,3.072,2.305H135.513z M160.978,82.408c-1.344,0-2.928,0.576-3.84,1.896l-0.192-1.634h-2.736v16.777h2.928
			v-6.337c0.84,1.297,2.688,1.681,3.936,1.681c3.792,0,5.977-2.735,5.977-6.192C167.05,85.12,164.626,82.408,160.978,82.408z
			 M160.762,91.961c-1.992,0-3.36-1.513-3.36-3.359c0-1.848,1.248-3.36,3.36-3.36c2.112,0,3.36,1.513,3.36,3.36
			C164.122,90.448,162.753,91.961,160.762,91.961z M179.05,88.721c0,1.801-1.224,3.313-3.024,3.313
			c-1.872,0-2.856-1.368-2.856-3.169v-6.192h-2.928v6.218c0,3.672,2.064,5.809,4.896,5.809c1.656,0,2.784-0.576,4.008-1.776
			l0.192,1.608h2.616V82.672h-2.904V88.721L179.05,88.721z M188.673,84.04l-0.216-1.368h-2.712v11.833h2.928v-6.239
			c0-2.185,1.416-3,2.952-3c0.96,0,1.512,0.264,2.112,0.768l1.32-2.544c-0.648-0.648-1.824-1.128-3.048-1.128
			C190.81,82.359,189.585,82.576,188.673,84.04z M202.953,92.057c-1.824,0-3.36-1.199-3.36-3.455c0-2.063,1.44-3.504,3.409-3.504
			c0.816,0,1.68,0.312,2.376,0.936l1.848-1.944c-1.296-1.271-2.592-1.752-4.272-1.752c-3.432,0-6.289,2.063-6.289,6.265
			s2.856,6.266,6.289,6.266c1.752,0,3.192-0.528,4.561-1.872l-1.968-1.921C204.825,91.793,203.89,92.057,202.953,92.057z
			 M216.633,82.504c-1.344,0-2.64,0.408-3.696,1.776v-6.576h-2.928v16.801h2.928v-6.048c0-1.775,1.2-3.241,2.929-3.241
			c1.56,0,2.688,0.913,2.688,3.073v6.216h2.928v-6.239C221.481,84.784,219.993,82.504,216.633,82.504z M234.441,84.305
			c-0.672-1.177-2.185-1.92-3.769-1.92c-3.456-0.023-6.168,2.111-6.168,6.192c0,4.151,2.592,6.313,6.097,6.288
			c1.32-0.023,3.168-0.696,3.84-2.088l0.144,1.728h2.761V82.672h-2.809L234.441,84.305z M230.937,92.177
			c-1.944,0-3.504-1.344-3.504-3.6c0-2.257,1.56-3.577,3.504-3.577C235.545,85,235.545,92.177,230.937,92.177z M245.865,87.232
			c-1.512-0.097-2.208-0.527-2.208-1.297c0-0.744,0.768-1.176,2.16-1.176c1.128,0,2.088,0.264,2.929,1.057l1.632-1.92
			c-1.368-1.201-2.76-1.562-4.608-1.562c-2.16,0-4.992,0.96-4.992,3.696c0,2.688,2.664,3.505,4.896,3.673
			c1.68,0.096,2.352,0.432,2.352,1.248c0,0.864-1.032,1.44-2.136,1.416c-1.32-0.024-3.24-0.72-4.081-1.656l-1.44,2.088
			c1.728,1.802,3.601,2.112,5.473,2.112c3.384,0,5.088-1.801,5.088-3.889C250.929,87.881,248.097,87.377,245.865,87.232z
			 M259.761,82.313c-3.84,0-6.289,2.593-6.289,6.192c0,3.792,2.424,6.313,6.504,6.313c1.8,0,3.84-0.625,5.088-1.92l-1.872-1.85
			c-0.672,0.696-2.088,1.104-3.168,1.104c-2.064,0-3.336-1.057-3.528-2.521h9.241C266.193,84.761,263.721,82.313,259.761,82.313z
			 M256.544,87.209c0.432-1.536,1.728-2.305,3.312-2.305c1.68,0,2.88,0.769,3.072,2.305H256.544z M278.553,77.729v6.553
			c-0.696-1.225-2.64-1.896-3.888-1.896c-3.457,0-6.024,2.111-6.024,6.192c0,3.888,2.616,6.192,6.096,6.192
			c1.44,0,2.904-0.48,3.816-1.896l0.192,1.632h2.736V77.729H278.553z M274.929,92.057c-1.873,0-3.36-1.416-3.36-3.479
			c0-2.137,1.488-3.457,3.36-3.457c1.848,0,3.432,1.393,3.432,3.457C278.361,90.713,276.776,92.057,274.929,92.057z"/>
	</g>
</g>
<path opacity="0.5" fill="#FFFFFF" enable-background="new    " d="M154.709,29.927h-1v-4h1V29.927z M154.709,31.527h-1v4h1V31.527z
	 M154.709,37.127h-1v4h1V37.127z M154.709,42.727h-1v4h1V42.727z M154.709,48.327h-1v4h1V48.327z M154.709,53.927h-1v4h1V53.927z"/>
<path opacity="0.5" fill="#FFFFFF" enable-background="new    " d="M435.167,29.927h-1v-4h1V29.927z M435.167,31.527h-1v4h1V31.527z
	 M435.167,37.127h-1v4h1V37.127z M435.167,42.727h-1v4h1V42.727z M435.167,48.327h-1v4h1V48.327z M435.167,53.927h-1v4h1V53.927z"/>
</svg>
