<?xml version="1.0" encoding="utf-8"?>
<!-- Generator: Adobe Illustrator 16.0.0, SVG Export Plug-In . SVG Version: 6.00 Build 0)  -->
<!DOCTYPE svg PUBLIC "-//W3C//DTD SVG 1.1//EN" "http://www.w3.org/Graphics/SVG/1.1/DTD/svg11.dtd">
<svg version="1.1" id="Layer_1" xmlns="http://www.w3.org/2000/svg" xmlns:xlink="http://www.w3.org/1999/xlink" x="0px" y="0px"
	 width="24px" height="24px" viewBox="0 0 24 24" enable-background="new 0 0 24 24" xml:space="preserve">
<g>
	<g>
		<path fill-rule="evenodd" clip-rule="evenodd" fill="#FFFFFF" d="M13.72,11.98c0-0.945-0.767-1.714-1.712-1.714H1.727
			c-0.947,0-1.714,0.769-1.714,1.714c0,0.946,0.767,1.713,1.714,1.713h10.281C12.953,13.693,13.72,12.927,13.72,11.98z
			 M23.452,10.689L13.413,0.542c-0.713-0.724-1.871-0.724-2.585,0c-0.713,0.725-0.713,1.897,0,2.621L19.571,12l-8.743,8.835
			c-0.713,0.726-0.713,1.899,0,2.622c0.714,0.724,1.872,0.724,2.585,0L23.452,13.31C24.166,12.586,24.166,11.413,23.452,10.689z"/>
	</g>
</g>
</svg>
